<?xml version="1.0" encoding="UTF-8"?>
<svg id="_レイヤー_1" data-name="レイヤー 1" xmlns="http://www.w3.org/2000/svg" viewBox="0 0 216.5 229.5">
  <defs>
    <style>
      .cls-1 {
        stroke-width: 6px;
      }

      .cls-1, .cls-2, .cls-3, .cls-4 {
        fill: none;
        stroke: #000;
        stroke-linecap: round;
        stroke-linejoin: round;
      }

      .cls-2 {
        stroke-width: 7px;
      }

      .cls-3 {
        stroke-width: 5px;
      }

      .cls-5 {
        font-family: NotoSans-SemiBold, 'Noto Sans';
        font-size: 15.49px;
      }

      .cls-5, .cls-6, .cls-7 {
        font-weight: 600;
      }

      .cls-4 {
        stroke-width: 3px;
      }

      .cls-6 {
        font-size: 14.59px;
      }

      .cls-6, .cls-7 {
        font-family: NotoSans-SemiBoldItalic, 'Noto Sans';
        font-style: italic;
      }

      .cls-7 {
        font-size: 49.84px;
      }
    </style>
  </defs>
  <text class="cls-7" transform="translate(32.77 94.66)"><tspan x="0" y="0">47.5</tspan></text>
  <text class="cls-6" transform="translate(31.82 51.05)"><tspan x="0" y="0">Club Speed</tspan></text>
  <text class="cls-5" transform="translate(35.32 112.07)"><tspan x="0" y="0">46.3</tspan></text>
  <text class="cls-5" transform="translate(93.13 111.95)"><tspan x="0" y="0">m/s</tspan></text>
  <rect x="162.83" y="25.29" width="17.21" height="101.59" rx="4.64" ry="4.64" transform="translate(46.07 -63.42) rotate(24.12)"/>
  <path class="cls-4" d="M136.74,123.38c7.53,3.71,15.06,7.41,22.59,11.12-3.59,5.98-8.48,15.23-12.19,27.26-3.95,12.82-2.38,15.26-5.02,20.8-11.12,23.39-58.84,21.72-64.55,21.52-16.92-.59-41.78-1.47-53.08-19.37-.52-.82-9.75-15.91-3.59-28.69,8.83-18.31,42.81-18.57,52.36-18.65,25.74-.2,39.69,8.62,53.08-.72,5.63-3.93,8.7-9.35,10.4-13.27Z"/>
  <path class="cls-4" d="M28.79,159.6c2.23-4.65,6.54-7.04,10.04-8.61,28.33-12.72,68.86-2.87,68.86-2.87,15.06,3.66,27.76,6.92,30.13,15.78,1.8,6.75-3.29,13.49-5.02,15.78-12.72,16.83-38.89,16.14-52.36,15.78-13.83-.37-41.34-1.09-50.21-17.93-.85-1.61-5.06-10.36-1.43-17.93Z"/>
  <path class="cls-1" d="M42.78,171.2h71.01"/>
  <path class="cls-3" d="M55.48,183.87h58.31"/>
  <path class="cls-2" d="M42.78,158.53h71.01"/>
  <path d="M154.66,132.21c-5.19-1.84-10.08-4.21-14.78-7.09-2.84-1.74-5.51.99-5.31,3.55-.9.41-1.65,1.2-2.03,2.27-.26.73-.57,1.42-.94,2.07-1.68.73-3.29,1.84-4.76,2.87-.96.67-1.76,1.41-2.41,2.38-.13.19-.31.58-.48.9-.04.03-.08.06-.12.08-.49.24-1.02.41-1.59.47-.5.06-1.01.22-1.48.47-.71.06-1.42.15-2.13.26-.49.07-1,.4-1.43.79-6.88.04-13.87-1.62-20.61-2.38-8.95-1.02-17.94-1.58-26.92-2.05-1.09-.06-1.91.3-2.49.88-5.65.11-11.25.78-16.77,2-.32.07-.6.17-.85.29-4.05.13-7.73,1.23-11.21,2.86-.14.03-.29.06-.42.12-.85.36-1.7.71-2.54,1.07-.67.28-1.24.57-1.7,1.05-.83-.22-1.76-.16-2.63.27-1.96.98-3.51,2.38-4.64,4.18-.75.22-1.43.75-1.92,1.66-.42.8-.84,1.59-1.23,2.38-.73.22-1.49.66-2,1.21-.56.6-1.08,1.4-1.22,2.23-.13.77-.15,1.57.22,2.28-.93,2.71-.9,5.93-.89,8.64,0,.67.16,1.23.41,1.71-.01.15-.02.3-.02.45.02,2.19.34,4.26,1.08,6.33.17.47.42.87.72,1.21.25.9.52,1.79.83,2.69.2.57.56,1.07,1,1.46.05.75.39,1.52,1.12,2.2.17.16.35.31.52.47.02.02.04.04.05.06.13.25.27.49.4.74.24.45.54.8.86,1.07.08.12.16.23.25.34.14.16.28.3.42.45-.31,1.79.71,3.85,3.05,3.85.23,0,.44-.02.64-.06,4.1,4.84,11.24,7.28,17.41,9.01.45.14.92.25,1.38.38.21,1.11,1,2.05,2.54,2.28,11.47,1.72,22.98,2.34,34.56,1.69,1.01-.06,1.81-.42,2.4-1,5.28-.12,10.55-.34,15.78-1.14,2.51-.38,4.99-.93,7.42-1.69.7.38,1.57.49,2.59.14,2.83-.97,6.12-1.67,8.65-3.31,5.79.52,14.06-9.03,16.86-11.87.66-.67.97-1.41,1.03-2.14,1.44-.8,1.87-2.71,1.28-4.17.25-.48.48-.97.63-1.47.24-.76.23-1.44.04-2.03.8-1.77,1.5-3.57,1.91-5.41.21-.92.08-1.73-.27-2.41.71-2.17,1.55-4.23,2.59-6.26.72-1.41.56-2.7-.08-3.65.93-1.75,1.77-3.53,1.99-5.47.84-1.34,1.63-2.69,2.37-4.09.39-.74.48-1.48.39-2.17.41-.79.81-1.57,1.21-2.37.35-.49.71-.99,1.06-1.48.22-.31.38-.63.47-.96.69-.62,1.06-1.45,1.16-2.3,0,0,.02-.01.03-.02.08-.05.16-.12.23-.17.06-.03.12-.06.19-.08,3.62-1.55,1.47-6.3-1.86-6.51ZM138.14,168.68c-.81,3.23-2.56,6.3-4.04,9.25-.16.33-.27.65-.34.97-.51.42-.94.95-1.19,1.6-1,2.55-4.56,4.57-6.62,6.23-1.65,1.34-3.96,1.94-5.43,3.42-1.59-.05-3.08.49-4.69,1.19-3,1.3-5.98,2.41-9.18,3.14-6.17,1.39-12.54,1.49-18.84,1.62-2.97-1.41-7.95-.81-10.52-.97-6.99-.44-13.96-1.07-20.94-1.6-.45-.03-.85,0-1.22.1-.41-.58-1.02-1.05-1.88-1.31-2.54-.77-5.09-1.54-7.63-2.31-1.93-.58-4.17-1.02-5.96-2.08-.57-.39-1.13-.8-1.69-1.23-.31-.23-.62-.4-.94-.5-.27-.38-.64-.72-1.12-1.01-.45-.27-.88-.55-1.28-.85-.11-.66-.46-1.32-1.14-1.92-.9-.81-1.81-1.62-2.71-2.43-.66-1.23-1.32-2.45-1.98-3.68-.09-.17-.2-.33-.31-.47-.32-1.13-.59-2.28-.82-3.45-.12-.61-.38-1.08-.71-1.47-.02-.28-.04-.55-.04-.84,0-.69-.17-1.27-.45-1.75.02-.14.05-.26.06-.41.07-1.39.14-2.77.21-4.16,0-.03,0-.06,0-.09.63-.64,1-1.54,1.13-2.54.23-1.75,1.21-3.47,2.11-5.07.58-.16,1.12-.5,1.55-1.08.48-.06.96-.22,1.44-.55,5.1-3.55,10.37-7.16,16.8-7.3.66-.02,1.23-.18,1.7-.44.27,0,.55-.03.85-.1,3.29-.72,6.58-1.22,9.9-1.49.18.03.38.05.58.05.4,0,.77-.06,1.09-.17,1.24-.08,2.48-.12,3.73-.14.97-.01,1.73-.34,2.3-.85,9.38.49,18.76,1.09,28.09,2.2,4.18.5,8.32,1.19,12.46,1.63.42.55,1.07.96,2,1.12,1.73.29,3.45.58,5.18.86.25.14.53.26.84.34,2.04.58,4.09,1.16,6.13,1.73,1.07.8,2.36,1.25,3.71,1.56.3.22.61.42.93.6,3.16,1.84,5.3,4.14,7.58,7,.28.35.58.61.9.8.05.48.17.94.37,1.38.09.2.18.4.28.6.06.13.13.24.2.36-.22.61-.44,1.23-.64,1.86-.33,1.04-.2,1.94.22,2.65Z"/>
</svg>