<?xml version="1.0" encoding="UTF-8"?>
<svg id="_レイヤー_1" data-name="レイヤー 1" xmlns="http://www.w3.org/2000/svg" viewBox="0 0 216.5 229.5">
  <defs>
    <style>
      .cls-1 {
        stroke-width: 7px;
      }

      .cls-1, .cls-2 {
        fill: none;
        stroke: #000;
        stroke-linecap: round;
        stroke-linejoin: round;
      }

      .cls-2 {
        stroke-width: 5px;
      }
    </style>
  </defs>
  <path class="cls-1" d="M97.54,76.61h20.82"/>
  <path class="cls-1" d="M68.98,65.43h77.94c9.83,0,17.8,7.98,17.8,17.8v139.27H51.18V83.23c0-9.83,7.98-17.8,17.8-17.8Z"/>
  <g>
    <path class="cls-2" d="M93.13,130.72c9.88,9.67,19.77,19.34,29.65,29.02-4.63,4.84-9.25,9.67-13.88,14.51v-51.73"/>
    <path class="cls-2" d="M93.13,162.89c9.88-9.67,19.77-19.34,29.65-29.02-4.63-4.84-9.25-9.67-13.88-14.51v51.73"/>
  </g>
  <circle cx="107.95" cy="47.14" r="4.42"/>
  <path class="cls-1" d="M97.54,37.68c.64-.66,4.52-4.53,10.67-4.42,5.82.11,9.46,3.7,10.15,4.42"/>
  <path class="cls-1" d="M86.07,28.21c1.57-1.51,9.6-8.94,22.14-8.83,12.2.1,19.98,7.26,21.61,8.83"/>
  <path class="cls-1" d="M76.26,19.07c2-2.09,13.14-13.33,31.11-13.57,18.66-.25,30.36,11.57,32.27,13.57"/>
</svg>