<?xml version="1.0" encoding="UTF-8"?>
<svg id="_レイヤー_1" data-name="レイヤー 1" xmlns="http://www.w3.org/2000/svg" viewBox="0 0 216.5 229.5">
  <defs>
    <style>
      .cls-1 {
        stroke-width: 7px;
      }

      .cls-1, .cls-2 {
        stroke: #000;
        stroke-linecap: round;
        stroke-linejoin: round;
      }

      .cls-2 {
        stroke-width: 5px;
      }
    </style>
  </defs>
  <circle cx="116.86" cy="23.24" r="19.74"/>
  <path class="cls-1" d="M161.69,5.84c-.07-.05-.94-.58-2.01-.67-2.81-.22-6.04,2.78-6.69,6.02-.42,2.11.34,3.89.67,4.68,1.49,3.57,3.3,8.75,5.35,16.73-18.97,7.67-33.06,13.59-38.81,16.06-.97.42-3,1.32-4.68,3.35-2.96,3.57-2.88,8.28-2.68,11.37.91,13.85,7.08,40.31,7.36,41.48-5.35,18.29-10.7,36.58-16.06,54.86-8.25,13.16-16.5,26.32-24.76,39.47-.89,1.32-2.55,4.16-2.68,8.03-.06,1.98-.14,4.32,1.34,6.02,2.71,3.12,8.92,2.11,12.71,0,2.94-1.63,4.57-4.01,5.35-5.35,9.14-12.49,18.29-24.98,27.43-37.47,2.01-4.24,4.01-8.47,6.02-12.71v-20.74c.09-1.87,1.61-3.32,3.35-3.35,1.54-.02,2.95,1.08,3.35,2.68v25.42c-2.77,26.66-4.19,46.37-4.01,51.52.07,1.98.43,4.47,2.01,6.69.73,1.03,1.94,2.74,4.01,3.35,4.24,1.23,8.58-3.2,10.04-4.68,1.69-1.72,2.73-3.46,3.35-4.68,1.78-16.95,3.57-33.9,5.35-50.85,2.45-18.96,4.91-37.91,7.36-56.87-2.01-13.6-4.01-27.21-6.02-40.81l-12.04,8.03c-1.61.93-3.6.59-4.68-.67-1.28-1.48-1.07-3.97.67-5.35,10.93-7.36,21.86-14.72,32.78-22.08-5.99-20.03-10.53-34.57-11.37-36.8-.33-.87-.89-1.97-2.01-2.68Z"/>
  <g>
    <path d="M182.36,50.42c.62-.54,1-1.13,1.22-1.59.4-.83.75-2.18.17-3.93-.12-.37-.9-2.9-2.15-7.01,3.15,5.73,5.18,9.4,5.83,10.52.02.04.04.08.07.11-1.01.42-2.81,1.08-5.14,1.89Z"/>
    <path d="M168.38,6.51c6.78,22.25,11.71,38.44,12.04,39.47.06.18.27.78,0,1.34-.2.42-.57.62-.67.67-.83.47-8.54,5.81-19.4,13.38,1.5-.48,26.46-8.44,29.44-10.04.3-.16,1.01-.55,1.34-1.34.54-1.31-.37-2.83-.67-3.35-1.43-2.46-10.08-18.27-22.08-40.14h0Z"/>
  </g>
  <path class="cls-2" d="M144.96,21.9c4.24-1.78,8.47-3.57,12.71-5.35-.78-1.45-1.56-2.9-2.34-4.35-3.68,1.67-7.36,3.35-11.04,5.02.17.59.34,1.26.46,2,.16,1,.22,1.91.21,2.68Z"/>
  <path class="cls-2" d="M93.44,39.29c-22.75,10.04-45.5,20.07-68.24,30.11v14.05c.32,1.34,1.02,3.4,2.68,5.35,3.88,4.58,9.71,4.68,10.7,4.68v-24.09c19.52-8.66,39.04-17.33,58.57-25.99-.71-.64-1.46-1.39-2.21-2.25-.56-.64-1.05-1.26-1.49-1.86Z"/>
</svg>