<?xml version="1.0" encoding="UTF-8"?>
<svg id="_レイヤー_4" data-name="レイヤー 4" xmlns="http://www.w3.org/2000/svg" viewBox="0 0 216.5 229.5">
  <defs>
    <style>
      .cls-1, .cls-2, .cls-3 {
        fill: none;
      }

      .cls-1, .cls-2, .cls-3, .cls-4, .cls-5 {
        stroke: #000;
        stroke-linecap: round;
        stroke-linejoin: round;
      }

      .cls-1, .cls-5 {
        stroke-width: 6px;
      }

      .cls-2, .cls-4 {
        stroke-width: 5px;
      }

      .cls-3 {
        stroke-width: 3px;
      }
    </style>
  </defs>
  <ellipse class="cls-2" cx="111.26" cy="54" rx="45" ry="25"/>
  <ellipse class="cls-1" cx="111.26" cy="60" rx="61.2" ry="34"/>
  <path class="cls-5" d="M167.21,75.46c1.46,2.97,2.63,6.71,2.22,10.86-1.78,18.12-32.46,32.32-58.17,32.32-25.82,0-56.48-14.33-58.17-32.32-.38-4.04.76-7.65,2.16-10.53,6.33,4.71,26.65,18.62,56.15,18.5,29.36-.12,49.51-14.06,55.82-18.83Z"/>
  <path class="cls-1" d="M50.15,62c1.05,8.81,2.09,17.61,3.14,26.42"/>
  <path class="cls-1" d="M172.27,62.69c-1.05,8.81-2.09,17.61-3.14,26.42"/>
  <path class="cls-2" d="M67.03,57.57h88.79"/>
  <path class="cls-3" d="M69.06,45.62h84.61"/>
  <path class="cls-2" d="M66.8,57.57c13.81,1.17,28.81,1.89,44.86,1.87,15.7-.01,30.39-.73,43.93-1.87"/>
  <path class="cls-2" d="M66.36,51.69c-5.4,2.18-10.81,4.36-16.21,6.54"/>
  <path class="cls-2" d="M66.17,51.62c-2.38-.17-7.61-.48-11.23-.08-.32.04-.87.1-1.49.41-2.33,1.17-2.89,4.38-3.06,5.86"/>
  <path class="cls-2" d="M156.19,52.07c5.4,2.18,10.81,4.36,16.21,6.54"/>
  <path class="cls-2" d="M156.38,52.01c2.38-.17,7.61-.48,11.23-.08.32.04.87.1,1.49.41,2.33,1.17,2.89,4.38,3.06,5.86"/>
  <path class="cls-4" d="M104.95,130.45c.11.18,2.23,3.55,6.3,3.55s6.19-3.37,6.3-3.55l1.17-11.71c-2.04.38-4.6.69-7.55.65-2.91-.04-5.42-.42-7.43-.85.4,3.97.81,7.95,1.21,11.92Z"/>
  <ellipse class="cls-1" cx="110.82" cy="137.53" rx="52.81" ry="35.85"/>
  <path class="cls-5" d="M159.67,169.8c1.25-10.35,2.5-20.7,3.74-31.05-.32,5.24-1.67,14.03-7.71,21.85-11.48,14.86-31.4,15.26-44.75,15.52-13.33.26-30.41.6-42.28-11.89-7.28-7.67-9.51-16.9-10.29-22.18,1.25,9.47,2.5,18.94,3.74,28.4,1.84,2.44,18.93,24.23,48.66,24.17,30.07-.07,47.12-22.44,48.88-24.83Z"/>
  <path class="cls-1" d="M110.79,173.5c-20.11,0-37.6-7.64-46.51-18.87-1.76,3.44-2.72,7.13-2.72,10.97,0,18.47,22.06,33.45,49.27,33.45s49.27-14.98,49.27-33.45c0-3.86-.98-7.57-2.75-11.02-8.91,11.26-26.41,18.92-46.55,18.92Z"/>
  <path class="cls-5" d="M110.79,215.15c-19.98,0-37.5-7.41-47.46-18.56,2.53,21.09,5.07,42.18,7.6,63.26h79.27c2.58-20.97,5.15-41.94,7.73-62.91-10,10.96-27.37,18.21-47.14,18.21Z"/>
</svg>