<?xml version="1.0" encoding="UTF-8"?>
<svg id="_レイヤー_1" data-name="レイヤー 1" xmlns="http://www.w3.org/2000/svg" viewBox="0 0 216.5 229.5">
  <defs>
    <style>
      .cls-1 {
        stroke-width: 8.63px;
      }

      .cls-1, .cls-2, .cls-3 {
        fill: none;
      }

      .cls-1, .cls-2, .cls-3, .cls-4, .cls-5, .cls-6 {
        stroke: #000;
        stroke-linecap: round;
        stroke-linejoin: round;
      }

      .cls-2 {
        stroke-width: 5px;
      }

      .cls-3, .cls-4, .cls-5 {
        stroke-width: 3px;
      }

      .cls-5 {
        fill: #fff;
      }

      .cls-6 {
        stroke-width: 2px;
      }
    </style>
  </defs>
  <line class="cls-3" x1="108.25" y1="187.37" x2="108.25" y2="28.71"/>
  <line class="cls-3" x1="23.63" y1="108.56" x2="192.87" y2="108.56"/>
  <path class="cls-1" d="M86.98,118.32c.03-.86,1.43-9.22,4.22-25.94,2.26-13.56,2.63-15.19,2.53-19.02-.11-4.55-.31-19.11-10.12-27.67-2-1.74-5.81-5.06-11.03-5.06-5.73,0-9.81,4-13.43,7.66,0,0-13.52,13.52-15.19,38.04-.19,2.78-.17,4.67,0,6.37.53,4.98,1.65,8.64,2.04,9.79,3.06,9.14,6.59,24.82,6.76,25.56,4.1,18.32,1.05,27.9,8.07,39.55.74,1.23,2.25,3.54,5.06,5.19,5.82,3.4,14.27,2.08,19.4-2.59,2.99-2.72,4.29-6.07,5.06-8.65,4.74-15.82-4.07-23.54-3.37-43.23Z"/>
  <path class="cls-1" d="M129.52,118.32c-.03-.86-1.43-9.22-4.22-25.94-2.26-13.56-2.63-15.19-2.53-19.02.11-4.55.31-19.11,10.12-27.67,2-1.74,5.81-5.06,11.03-5.06,5.73,0,9.81,4,13.43,7.66,0,0,13.52,13.52,15.19,38.04.19,2.78.17,4.67,0,6.37-.53,4.98-1.65,8.64-2.04,9.79-3.06,9.14-6.59,24.82-6.76,25.56-4.1,18.32-1.05,27.9-8.07,39.55-.74,1.23-2.25,3.54-5.06,5.19-5.82,3.4-14.27,2.08-19.4-2.59-2.99-2.72-4.29-6.07-5.06-8.65-4.74-15.82,4.07-23.54,3.37-43.23Z"/>
  <rect class="cls-2" x="11.3" y="29.85" width="12.33" height="157.53" rx="6.17" ry="6.17"/>
  <rect class="cls-2" x="193.95" y="29.28" width="12.33" height="157.53" rx="6.17" ry="6.17"/>
  <rect class="cls-2" x="102.08" y="121.24" width="12.33" height="144.59" rx="6.17" ry="6.17" transform="translate(301.79 85.29) rotate(90)"/>
  <circle class="cls-4" cx="97.73" cy="70.74" r="5.45"/>
  <path class="cls-5" d="M68.43,73.27c26.31-2.56,52.61-5.12,78.92-7.68"/>
  <circle class="cls-3" cx="63.77" cy="73.72" r="4.68"/>
  <circle class="cls-3" cx="152.06" cy="65.29" r="4.68"/>
  <rect class="cls-6" x="11.3" y="73.72" width="11.3" height="34.32"/>
  <rect class="cls-6" x="193.95" y="65.29" width="11.4" height="42.75"/>
  <rect class="cls-6" x="80.51" y="187.37" width="27.74" height="10.53"/>
</svg>