<?xml version="1.0" encoding="UTF-8"?>
<svg id="_レイヤー_1" data-name="レイヤー 1" xmlns="http://www.w3.org/2000/svg" viewBox="0 0 244.53 39.06">
  <g>
    <path d="M8.43,30.04V.37h6.37v29.67h-6.37Z"/>
    <path d="M25.74,10.29v19.75h-6.04V3.76c0-2.33,1.22-3.76,3.18-3.76.94,0,1.67.33,2.57,1.18l19.43,18.65V.08h6.08v26.57c0,2.37-1.31,3.8-3.18,3.8-.98,0-1.75-.37-2.61-1.22L25.74,10.29Z"/>
    <path d="M55.6,30.04v-6.37h22.41c2.29,0,3.59-1.18,3.59-3.06,0-2-1.31-3.14-3.59-3.14h-13.43c-5.84,0-9.43-3.51-9.43-8.53,0-4.9,3.35-8.57,9.51-8.57h21.47v6.37h-21.47c-1.8,0-2.9,1.02-2.9,2.86,0,1.84,1.14,2.86,2.9,2.86h13.34c6.25,0,9.59,2.77,9.59,8.69,0,5.1-3.14,8.9-9.59,8.9h-22.41Z"/>
    <path d="M105.45,30.04c-8.45,0-14.65-6.53-14.65-15.14,0-8.73,6.2-14.53,14.65-14.53h7.35c8.73,0,14.77,5.92,14.77,14.53,0,8.61-6.2,15.14-14.77,15.14h-7.35ZM112.8,23.67c4.94,0,8.41-3.55,8.41-8.45,0-4.94-3.47-8.49-8.41-8.49h-7.35c-4.78,0-8.28,3.55-8.28,8.49,0,4.9,3.47,8.45,8.28,8.45h7.35Z"/>
    <path d="M131.39,30.04V.37h6.37v23.3s19.18,0,19.18,0v6.37h-25.55Z"/>
    <path d="M165.71,30.04v-10.77S150.24.37,150.24.37h8.53s10.37,13.1,10.37,13.1L179.5.37h8.08s-15.51,18.9-15.51,18.9v10.77h-6.37Z"/>
    <path d="M190.58,30.04V.37h6.37v29.67h-6.37Z"/>
    <path d="M204.1,30.04v-6.37h22.41c2.29,0,3.59-1.18,3.59-3.06,0-2-1.31-3.14-3.59-3.14h-13.43c-5.84,0-9.43-3.51-9.43-8.53,0-4.9,3.35-8.57,9.51-8.57h21.47v6.37h-21.47c-1.8,0-2.9,1.02-2.9,2.86s1.14,2.86,2.9,2.86h13.34c6.25,0,9.59,2.77,9.59,8.69,0,5.1-3.14,8.9-9.59,8.9h-22.41Z"/>
  </g>
  <path d="M0,38.26c40.6-3.62,81.55-4.31,122.26-4.5,40.71.21,81.66.89,122.26,4.5,1.17,1.44-122.34.34-122.26.79,0-.46-123.33.65-122.26-.79H0Z"/>
</svg>