<?xml version="1.0" encoding="UTF-8"?>
<svg id="_レイヤー_1" data-name="レイヤー 1" xmlns="http://www.w3.org/2000/svg" viewBox="0 0 301.07 29.74">
  <defs>
    <style>
      .cls-1 {
        fill: #231815;
      }
    </style>
  </defs>
  <path class="cls-1" d="M31.2,5.49c0,.4-.2.61-.65.61H10.65c-.36,0-.65.12-.89.36l-1.41,1.37c-.24.2-.36.48-.36.81v2.3c0,.2.08.36.24.52l1.61,1.57c.16.16.32.24.52.24h16.43c.57,0,1.05.2,1.41.57l2.95,3.15c.36.4.52.81.52,1.25v6.26c0,.44-.16.81-.48,1.13l-3.71,3.55c-.44.36-.93.57-1.45.57H.61c-.4,0-.61-.2-.61-.65v-2.95c0-.44.2-.65.61-.65h21.03c.36,0,.65-.08.93-.28l1.37-1.41c.2-.2.28-.4.28-.65v-3.15c-.04-.12-.12-.2-.24-.32l-1.57-1.53c-.2-.2-.48-.28-.77-.32H4.8c-.28,0-.57-.08-.81-.32l-3.03-3.35c-.44-.44-.52-.73-.52-1.33v-5.97c0-.61.32-.89.77-1.25l3.47-3.27c.32-.32.73-.48,1.21-.48h24.66c.44,0,.65.2.65.65v2.99Z"/>
  <path class="cls-1" d="M60.05,10.94c.24.2.36.52.36.85v17.31c0,.44-.2.65-.65.65h-4.64c-.4,0-.65-.2-.65-.65v-15.74c0-.16-.04-.28-.2-.44l-1.49-1.53c-.12-.12-.32-.2-.52-.2h-10.94v17.92c0,.44-.2.65-.61.65h-4.76c-.4,0-.61-.2-.61-.65V7.55c0-.93.04-1.7.16-2.62l.52-4.4c.04-.36.28-.52.65-.52h4.04c.4,0,.61.2.61.65v6.94h14.65c.44,0,.73.12,1.05.36l3.03,2.99Z"/>
  <path class="cls-1" d="M88.58,10.94c.24.24.36.48.36.85v13.76c0,.36-.12.61-.36.85l-3.03,2.99c-.2.2-.48.36-.81.36h-16.55c-.32,0-.61-.16-.81-.36l-3.03-2.99c-.24-.24-.36-.48-.36-.85v-13.76c0-.36.12-.61.36-.85l3.03-2.99c.2-.2.48-.36.81-.36h16.55c.32,0,.61.16.81.36l3.03,2.99ZM71.95,11.18c-.16,0-.36.12-.48.28l-1.29,1.53c-.2.2-.24.44-.24.69v9.69c0,.24.04.48.24.69l1.29,1.53c.12.16.32.28.48.28h9.04c.16,0,.36-.12.48-.28l1.29-1.53c.2-.2.24-.44.24-.69v-9.69c0-.24-.04-.48-.24-.69l-1.29-1.53c-.12-.16-.32-.28-.48-.28h-9.04Z"/>
  <path class="cls-1" d="M100.16,7.59h5c.4,0,.61.2.61.65v1.53c0,.36-.2.57-.56.61l-5.05.32v18.4c0,.44-.2.65-.65.65h-4.64c-.44,0-.65-.2-.65-.65V10.7l-2.54-.32c-.36-.04-.56-.24-.56-.61v-1.53c0-.44.2-.65.65-.65h2.66l.81-6.94c.04-.44.32-.65.81-.65h3.47c.44,0,.65.2.65.65v6.94Z"/>
  <path class="cls-1" d="M150.4,5.65c0,.44-.2.65-.61.65h-10.49v22.8c0,.44-.24.65-.65.65h-6.46c-.4,0-.61-.2-.61-.65V6.3h-10.53c-.4,0-.65-.2-.65-.65v-3.15c0-.4.24-.65.65-.65h28.74c.4,0,.61.24.61.65v3.15Z"/>
  <path class="cls-1" d="M169.93,11.1c0,.4-.2.61-.65.61h-5.85c-.44,0-.97.08-1.53.28l-2.38.73c-.4.12-.61.48-.61,1.05v15.34c0,.44-.2.65-.61.65h-4.76c-.4,0-.61-.2-.61-.65V10.86c0-.61.28-1.01.85-1.17l6.46-1.86c.61-.16,1.21-.24,1.78-.24h7.26c.44,0,.65.2.65.65v2.86Z"/>
  <path class="cls-1" d="M196.6,11.99c.12.12.32.61.32.81v15.74c0,.81-.4,1.21-1.17,1.21h-18.73c-.36,0-.69-.12-1.01-.36l-3.23-2.99c-.24-.2-.36-.48-.36-.85v-7.51c0-.81.36-1.21,1.13-1.21h17.44v-2.99c0-.28-.08-.48-.28-.69l-1.86-1.9c-.12-.12-.28-.2-.57-.2h-15.26c-.4,0-.61-.2-.61-.65v-2.18c0-.44.2-.65.61-.65h18.69c.32,0,.61.12.85.36l4.04,4.04ZM178.6,19.37c-.44,0-.69.24-.69.69v3.71c0,.32.12.61.32.81l1.41,1.25c.2.2.44.32.73.32h9.97c.44,0,.65-.24.65-.69v-6.09h-12.39Z"/>
  <path class="cls-1" d="M223.44,10.7c0,.44-.2.65-.65.65h-14c-.24,0-.44.08-.61.24l-1.41,1.37c-.16.16-.24.36-.24.61v9.56c0,.2.04.4.16.52l1.98,1.98c.16.2.4.28.73.28h13.24c.44,0,.65.2.65.65v2.54c0,.44-.2.65-.65.65h-16.83c-.36,0-.65-.12-.85-.32l-4-4.08c-.2-.28-.36-.48-.36-.81v-12.75c0-.32.12-.61.36-.85l2.99-2.95c.28-.28.57-.4.85-.4h18c.44,0,.65.2.65.65v2.46Z"/>
  <path class="cls-1" d="M252.05,8.88c0,.28-.08.57-.28.85l-4.8,7.34,5.77,10.82c.08.16.12.36.12.57v.61c0,.44-.08.69-.69.69h-4.44c-.44,0-.73-.12-.97-.57l-5.25-9.61h-8.56v9.52c0,.44-.2.65-.61.65h-4.76c-.4,0-.61-.2-.61-.65V7.55c0-.93.04-1.7.16-2.62l.52-4.4c.04-.36.24-.52.65-.52h4.04c.4,0,.61.2.61.65v15.34h8.52l4.4-7.83c.24-.44.4-.56.93-.56h4.52c.44,0,.73.16.73.61v.69Z"/>
  <path class="cls-1" d="M280.01,19.05c0,.77-.4,1.17-1.17,1.17h-17.4v3.15c0,.28.08.52.2.65l2.1,2.1c.12.12.28.16.57.16h15.05c.44,0,.65.2.65.65v2.18c0,.44-.2.65-.65.65h-18.65c-.36,0-.65-.12-.85-.32l-4.04-4.12c-.24-.24-.32-.48-.32-.77v-12.75c0-.32.12-.61.36-.85l2.95-2.91c.28-.28.61-.44.93-.44h19.09c.77,0,1.17.4,1.17,1.17v10.29ZM263.74,11.18c-.24,0-.44.08-.61.24l-1.41,1.37c-.2.2-.28.4-.28.69v4.08h12.39c.44,0,.69-.2.69-.61v-5.13c0-.44-.24-.65-.69-.65h-10.09Z"/>
  <path class="cls-1" d="M301.07,11.1c0,.4-.2.61-.65.61h-5.85c-.44,0-.97.08-1.53.28l-2.38.73c-.4.12-.61.48-.61,1.05v15.34c0,.44-.2.65-.61.65h-4.76c-.4,0-.61-.2-.61-.65V10.86c0-.61.28-1.01.85-1.17l6.46-1.86c.61-.16,1.21-.24,1.78-.24h7.26c.44,0,.65.2.65.65v2.86Z"/>
</svg>