<?xml version="1.0" encoding="UTF-8"?>
<svg id="_レイヤー_1" data-name="レイヤー 1" xmlns="http://www.w3.org/2000/svg" viewBox="0 0 346.37 34.22">
  <path d="M28.13,14.58H7.9c-1.93,0-2.8-.87-2.8-2.83,0-2.36,1.3-3.46,4.08-3.46h23.38c1.05,0,1.67-.63,1.67-1.67v-1.1c0-1.05-.63-1.67-1.67-1.67H9.26c-3.23,0-5.6.7-7.05,2.07-1.46,1.39-2.21,3.43-2.21,6.09,0,4.6,2.44,7.03,7.06,7.03h20.27c2.01,0,2.91.92,2.91,2.98,0,2.46-1.35,3.6-4.26,3.6H1.64c-1.02,0-1.64.63-1.64,1.67v1.1c0,1.05.61,1.67,1.64,1.67h24.3c3.27,0,5.68-.7,7.16-2.07,1.49-1.39,2.25-3.46,2.25-6.16,0-4.74-2.49-7.24-7.21-7.24Z"/>
  <path d="M74.24,3.85h-1.69c-1.05,0-1.67.63-1.67,1.67v9.03h-26.45V5.52c0-1.05-.63-1.67-1.67-1.67h-1.69c-1.05,0-1.67.63-1.67,1.67v22.87c0,1.05.63,1.67,1.67,1.67h1.69c1.05,0,1.67-.63,1.67-1.67v-9.39h26.45v9.39c0,1.05.63,1.67,1.67,1.67h1.69c1.05,0,1.67-.63,1.67-1.67V5.52c0-1.05-.63-1.67-1.67-1.67Z"/>
  <path d="M159.69,3.85h-33.17c-1.05,0-1.67.63-1.67,1.67v1.1c0,1.05.63,1.67,1.67,1.67h14.05v20.09c0,1.05.64,1.67,1.71,1.67h1.65c1.05,0,1.67-.63,1.67-1.67V8.29h14.08c1.05,0,1.67-.63,1.67-1.67v-1.1c0-1.05-.63-1.67-1.67-1.67Z"/>
  <path d="M199.27,25.62h-26.18V5.52c0-1.05-.63-1.67-1.67-1.67h-1.69c-1.05,0-1.67.63-1.67,1.67v22.87c0,1.05.63,1.67,1.67,1.67h29.54c1.05,0,1.67-.63,1.67-1.67v-1.1c0-1.05-.63-1.67-1.67-1.67Z"/>
  <path d="M229.87,3.85h-2.2c-.56,0-.99.06-1.29.17-.31.11-.65.34-1.08.71l-13.06,11.1-13.14-11.11c-.41-.33-.75-.55-1.04-.67-.31-.13-.74-.19-1.32-.19h-2.42c-.41,0-.74.12-.98.36-.24.24-.36.55-.36.91,0,.43.16.82.51,1.16l16.13,13.63v8.47c0,1.05.63,1.67,1.67,1.67h1.69c1.05,0,1.67-.63,1.67-1.67v-8.55l16.05-13.59c.31-.31.47-.69.47-1.09,0-.34-.12-.65-.35-.91-.17-.18-.47-.4-.96-.4Z"/>
  <path d="M265.64,25.62h-24.26l24.46-17.57c.37-.25.63-.5.79-.76.17-.28.25-.63.25-1.07v-.7c0-1.05-.63-1.67-1.67-1.67h-30.6c-1.05,0-1.67.63-1.67,1.67v1.1c0,1.05.63,1.67,1.67,1.67h23.01l-24.47,17.56c-.4.25-.68.5-.85.78-.17.28-.25.64-.25,1.06v.7c0,1.05.63,1.67,1.67,1.67h31.92c1.05,0,1.67-.63,1.67-1.67v-1.1c0-1.05-.63-1.67-1.67-1.67Z"/>
  <path d="M304.2,3.85h-31.12c-1.05,0-1.67.63-1.67,1.67v22.87c0,1.05.63,1.67,1.67,1.67h31.12c1.02,0,1.64-.63,1.64-1.67v-1.1c0-1.05-.61-1.67-1.64-1.67h-27.76v-6.58h22.99c1.02,0,1.64-.63,1.64-1.67v-1.1c0-1.05-.61-1.67-1.64-1.67h-22.99v-6.29h27.76c1.02,0,1.64-.63,1.64-1.67v-1.1c0-1.05-.61-1.67-1.64-1.67Z"/>
  <path d="M345.83,27.64l-7.72-6.85c2.25-.17,4.01-.9,5.26-2.18,1.43-1.47,2.15-3.61,2.15-6.38,0-5.48-2.92-8.38-8.46-8.38h-25.54c-1.05,0-1.67.63-1.67,1.67v22.87c0,1.05.63,1.67,1.67,1.67h1.69c1.05,0,1.67-.63,1.67-1.67v-7.19h16.81l8.58,7.97c.41.38.77.62,1.09.73.32.11.73.16,1.3.16h2.35c.38,0,.71-.13.97-.38.25-.25.38-.57.38-.92,0-.39-.17-.75-.54-1.12ZM314.88,8.29h21.3c2.86,0,4.19,1.34,4.19,4.23s-1.33,4.23-4.19,4.23h-21.3v-8.45Z"/>
  <path d="M126.54,14.44h-4.78c-.36-3.08-1.4-5.54-3.14-7.28-2.2-2.2-5.5-3.31-9.8-3.31h-3.37V0h-5.02v3.85h-3.37c-4.3,0-7.6,1.12-9.8,3.31-1.74,1.74-2.78,4.21-3.14,7.28h-4.71v5.02h4.71c.36,3.08,1.4,5.54,3.14,7.28,2.2,2.2,5.49,3.31,9.8,3.31h3.37v4.16h5.02v-4.16h3.37c4.3,0,7.6-1.12,9.8-3.31,1.74-1.74,2.77-4.2,3.14-7.28h4.78v-5.02ZM108.23,25.62h-2.78v-3.72h-5.02v3.72h-2.75c-4.87,0-7.6-2.03-8.35-6.15h4.31v-5.02h-4.31c.75-4.11,3.48-6.15,8.35-6.15h2.75v4.03h5.02v-4.03h2.78c4.87,0,7.6,2.04,8.35,6.15h-4.29v5.02h4.29c-.75,4.11-3.49,6.15-8.35,6.15Z"/>
</svg>