<?xml version="1.0" encoding="UTF-8"?>
<svg id="_レイヤー_1" data-name="レイヤー 1" xmlns="http://www.w3.org/2000/svg" viewBox="0 0 315.06 50.72">
  <defs>
    <style>
      .cls-1 {
        fill: #040000;
      }
    </style>
  </defs>
  <path class="cls-1" d="M25.58,23.06H7.19c-1.76,0-2.54-.79-2.54-2.58,0-2.14,1.18-3.14,3.71-3.14h21.26c.95,0,1.52-.57,1.52-1.52v-1c0-.95-.57-1.52-1.52-1.52H8.42c-2.93,0-5.09.63-6.41,1.88-1.33,1.26-2.01,3.12-2.01,5.54,0,4.18,2.22,6.39,6.42,6.39h18.43c1.83,0,2.64.84,2.64,2.71,0,2.24-1.23,3.28-3.88,3.28H1.49c-.93,0-1.49.57-1.49,1.52v1c0,.95.56,1.52,1.49,1.52h22.09c2.97,0,5.16-.63,6.51-1.88,1.36-1.26,2.04-3.15,2.04-5.6,0-4.31-2.27-6.59-6.55-6.59Z"/>
  <path class="cls-1" d="M67.49,13.3h-1.53c-.95,0-1.52.57-1.52,1.52v8.21h-24.04v-8.21c0-.95-.57-1.52-1.52-1.52h-1.53c-.95,0-1.52.57-1.52,1.52v20.79c0,.95.57,1.52,1.52,1.52h1.53c.95,0,1.52-.57,1.52-1.52v-8.54h24.04v8.54c0,.95.57,1.52,1.52,1.52h1.53c.95,0,1.52-.57,1.52-1.52V14.82c0-.95-.57-1.52-1.52-1.52Z"/>
  <path class="cls-1" d="M145.17,13.3h-30.15c-.95,0-1.52.57-1.52,1.52v1c0,.95.57,1.52,1.52,1.52h12.77v18.27c0,.95.58,1.52,1.56,1.52h1.5c.95,0,1.52-.57,1.52-1.52v-18.27h12.8c.95,0,1.52-.57,1.52-1.52v-1c0-.95-.57-1.52-1.52-1.52Z"/>
  <path class="cls-1" d="M181.16,33.09h-23.8V14.82c0-.95-.57-1.52-1.52-1.52h-1.53c-.95,0-1.52.57-1.52,1.52v20.79c0,.95.57,1.52,1.52,1.52h26.85c.95,0,1.52-.57,1.52-1.52v-1c0-.95-.57-1.52-1.52-1.52Z"/>
  <path class="cls-1" d="M208.98,13.3h-2c-.51,0-.9.05-1.18.15-.28.1-.59.31-.98.65l-11.87,10.09-11.95-10.1c-.38-.3-.68-.5-.95-.61-.28-.12-.68-.18-1.2-.18h-2.2c-.37,0-.67.11-.89.33-.22.22-.33.5-.33.83,0,.39.15.75.47,1.06l14.66,12.4v7.7c0,.95.57,1.52,1.52,1.52h1.53c.95,0,1.52-.57,1.52-1.52v-7.77l14.6-12.36c.28-.28.43-.62.43-.99,0-.31-.11-.59-.31-.83-.15-.16-.43-.36-.87-.36Z"/>
  <path class="cls-1" d="M241.5,33.09h-22.06l22.23-15.97c.34-.23.57-.46.72-.69.15-.26.23-.57.23-.97v-.63c0-.95-.57-1.52-1.52-1.52h-27.82c-.95,0-1.52.57-1.52,1.52v1c0,.95.57,1.52,1.52,1.52h20.92l-22.25,15.96c-.37.23-.62.46-.77.7-.15.25-.23.58-.23.97v.63c0,.95.57,1.52,1.52,1.52h29.02c.95,0,1.52-.57,1.52-1.52v-1c0-.95-.57-1.52-1.52-1.52Z"/>
  <path class="cls-1" d="M276.55,13.3h-28.29c-.95,0-1.52.57-1.52,1.52v20.79c0,.95.57,1.52,1.52,1.52h28.29c.93,0,1.49-.57,1.49-1.52v-1c0-.95-.56-1.52-1.49-1.52h-25.23v-5.98h20.9c.93,0,1.49-.57,1.49-1.52v-1c0-.95-.56-1.52-1.49-1.52h-20.9v-5.72h25.23c.93,0,1.49-.57,1.49-1.52v-1c0-.95-.56-1.52-1.49-1.52Z"/>
  <path class="cls-1" d="M314.4,34.93l-7.02-6.23c2.04-.15,3.65-.82,4.78-1.98,1.3-1.34,1.96-3.29,1.96-5.8,0-4.98-2.66-7.62-7.69-7.62h-23.22c-.95,0-1.52.57-1.52,1.52v20.79c0,.95.57,1.52,1.52,1.52h1.53c.95,0,1.52-.57,1.52-1.52v-6.54h15.29l7.8,7.25c.37.35.7.57.99.67.29.1.66.15,1.18.15h2.13c.34,0,.65-.12.88-.35.23-.23.34-.52.34-.84,0-.35-.16-.68-.49-1.01ZM286.26,17.35h19.37c2.6,0,3.81,1.22,3.81,3.84s-1.21,3.84-3.81,3.84h-19.37v-7.68Z"/>
  <path class="cls-1" d="M115.04,22.94h-4.34c-.33-2.8-1.27-5.04-2.85-6.62-2-2-5-3.01-8.91-3.01h-3.06v-3.5h-4.57v3.5h-3.06c-3.91,0-6.91,1.01-8.91,3.01-1.58,1.59-2.52,3.82-2.86,6.62h-4.28v4.57h4.28c.33,2.8,1.27,5.04,2.86,6.62,2,2,4.99,3.01,8.91,3.01h3.06v3.78h4.57v-3.78h3.06c3.91,0,6.91-1.01,8.91-3.01,1.58-1.59,2.52-3.82,2.85-6.62h4.34v-4.57ZM98.4,33.09h-2.53v-3.38h-4.57v3.38h-2.5c-4.42,0-6.91-1.85-7.59-5.59h3.92v-4.57h-3.92c.68-3.74,3.17-5.59,7.59-5.59h2.5v3.67h4.57v-3.67h2.53c4.42,0,6.91,1.85,7.59,5.59h-3.9v4.57h3.9c-.68,3.74-3.17,5.59-7.59,5.59Z"/>
</svg>