<?xml version="1.0" encoding="UTF-8"?>
<svg id="_レイヤー_1" data-name="レイヤー 1" xmlns="http://www.w3.org/2000/svg" viewBox="0 0 315.06 50.72">
  <defs>
    <style>
      .cls-1 {
        fill: #040000;
      }
    </style>
  </defs>
  <path class="cls-1" d="M39.71,16.1c0,.4-.2.6-.64.6h-19.64c-.36,0-.64.12-.88.36l-1.39,1.36c-.24.2-.36.48-.36.8v2.27c0,.2.08.36.24.52l1.59,1.55c.16.16.32.24.52.24h16.22c.56,0,1.04.2,1.39.56l2.91,3.11c.36.4.52.8.52,1.24v6.18c0,.44-.16.8-.48,1.12l-3.67,3.51c-.44.36-.92.56-1.43.56H9.5c-.4,0-.6-.2-.6-.64v-2.91c0-.44.2-.64.6-.64h20.76c.36,0,.64-.08.92-.28l1.35-1.39c.2-.2.28-.4.28-.64v-3.11c-.04-.12-.12-.2-.24-.32l-1.55-1.51c-.2-.2-.48-.28-.76-.32H13.65c-.28,0-.56-.08-.8-.32l-2.99-3.31c-.44-.44-.52-.72-.52-1.31v-5.9c0-.6.32-.88.76-1.24l3.43-3.23c.32-.32.72-.48,1.2-.48h24.35c.44,0,.64.2.64.64v2.95Z"/>
  <path class="cls-1" d="M68.19,21.48c.24.2.36.52.36.84v17.09c0,.44-.2.64-.64.64h-4.58c-.4,0-.64-.2-.64-.64v-15.54c0-.16-.04-.28-.2-.44l-1.47-1.51c-.12-.12-.32-.2-.52-.2h-10.8v17.69c0,.44-.2.64-.6.64h-4.7c-.4,0-.6-.2-.6-.64v-21.28c0-.92.04-1.67.16-2.59l.52-4.34c.04-.36.28-.52.64-.52h3.98c.4,0,.6.2.6.64v6.85h14.46c.44,0,.72.12,1.04.36l2.99,2.95Z"/>
  <path class="cls-1" d="M96.36,21.48c.24.24.36.48.36.84v13.59c0,.36-.12.6-.36.84l-2.99,2.95c-.2.2-.48.36-.8.36h-16.34c-.32,0-.6-.16-.8-.36l-2.99-2.95c-.24-.24-.36-.48-.36-.84v-13.59c0-.36.12-.6.36-.84l2.99-2.95c.2-.2.48-.36.8-.36h16.34c.32,0,.6.16.8.36l2.99,2.95ZM79.94,21.72c-.16,0-.36.12-.48.28l-1.28,1.51c-.2.2-.24.44-.24.68v9.56c0,.24.04.48.24.68l1.28,1.51c.12.16.32.28.48.28h8.93c.16,0,.36-.12.48-.28l1.27-1.51c.2-.2.24-.44.24-.68v-9.56c0-.24-.04-.48-.24-.68l-1.27-1.51c-.12-.16-.32-.28-.48-.28h-8.93Z"/>
  <path class="cls-1" d="M107.79,18.17h4.94c.4,0,.6.2.6.64v1.51c0,.36-.2.56-.56.6l-4.98.32v18.17c0,.44-.2.64-.64.64h-4.58c-.44,0-.64-.2-.64-.64v-18.17l-2.51-.32c-.36-.04-.56-.24-.56-.6v-1.51c0-.44.2-.64.64-.64h2.63l.8-6.85c.04-.44.32-.64.8-.64h3.43c.44,0,.64.2.64.64v6.85Z"/>
  <path class="cls-1" d="M157.39,16.26c0,.44-.2.64-.6.64h-10.36v22.51c0,.44-.24.64-.64.64h-6.37c-.4,0-.6-.2-.6-.64v-22.51h-10.4c-.4,0-.64-.2-.64-.64v-3.11c0-.4.24-.64.64-.64h28.37c.4,0,.6.24.6.64v3.11Z"/>
  <path class="cls-1" d="M176.67,21.64c0,.4-.2.6-.64.6h-5.78c-.44,0-.96.08-1.51.28l-2.35.72c-.4.12-.6.48-.6,1.04v15.14c0,.44-.2.64-.6.64h-4.7c-.4,0-.6-.2-.6-.64v-18.01c0-.6.28-1,.84-1.16l6.38-1.83c.6-.16,1.2-.24,1.75-.24h7.17c.44,0,.64.2.64.64v2.83Z"/>
  <path class="cls-1" d="M203.01,22.51c.12.12.32.6.32.8v15.54c0,.8-.4,1.2-1.16,1.2h-18.49c-.36,0-.68-.12-1-.36l-3.19-2.95c-.24-.2-.36-.48-.36-.84v-7.41c0-.8.36-1.2,1.12-1.2h17.21v-2.95c0-.28-.08-.48-.28-.68l-1.83-1.87c-.12-.12-.28-.2-.56-.2h-15.06c-.4,0-.6-.2-.6-.64v-2.15c0-.44.2-.64.6-.64h18.45c.32,0,.6.12.84.36l3.98,3.98ZM185.24,29.8c-.44,0-.68.24-.68.68v3.67c0,.32.12.6.32.8l1.39,1.24c.2.2.44.32.72.32h9.84c.44,0,.64-.24.64-.68v-6.02h-12.23Z"/>
  <path class="cls-1" d="M229.5,21.24c0,.44-.2.64-.64.64h-13.83c-.24,0-.44.08-.6.24l-1.4,1.36c-.16.16-.24.36-.24.6v9.44c0,.2.04.4.16.52l1.95,1.95c.16.2.4.28.72.28h13.07c.44,0,.64.2.64.64v2.51c0,.44-.2.64-.64.64h-16.62c-.36,0-.64-.12-.84-.32l-3.94-4.03c-.2-.28-.36-.48-.36-.8v-12.59c0-.32.12-.6.36-.84l2.95-2.91c.28-.28.56-.4.84-.4h17.77c.44,0,.64.2.64.64v2.43Z"/>
  <path class="cls-1" d="M257.75,19.44c0,.28-.08.56-.28.84l-4.74,7.25,5.7,10.68c.08.16.12.36.12.56v.6c0,.44-.08.68-.68.68h-4.38c-.44,0-.72-.12-.96-.56l-5.18-9.48h-8.45v9.4c0,.44-.2.64-.6.64h-4.7c-.4,0-.6-.2-.6-.64v-21.28c0-.92.04-1.67.16-2.59l.52-4.34c.04-.36.24-.52.64-.52h3.98c.4,0,.6.2.6.64v15.14h8.41l4.34-7.73c.24-.44.4-.56.92-.56h4.46c.44,0,.72.16.72.6v.68Z"/>
  <path class="cls-1" d="M285.36,29.49c0,.76-.4,1.16-1.16,1.16h-17.17v3.11c0,.28.08.52.2.64l2.07,2.07c.12.12.28.16.56.16h14.86c.44,0,.64.2.64.64v2.15c0,.44-.2.64-.64.64h-18.41c-.36,0-.64-.12-.84-.32l-3.98-4.06c-.24-.24-.32-.48-.32-.76v-12.59c0-.32.12-.6.36-.84l2.91-2.87c.28-.28.6-.44.92-.44h18.85c.76,0,1.16.4,1.16,1.16v10.16ZM269.3,21.72c-.24,0-.44.08-.6.24l-1.39,1.35c-.2.2-.28.4-.28.68v4.02h12.23c.44,0,.68-.2.68-.6v-5.06c0-.44-.24-.64-.68-.64h-9.96Z"/>
  <path class="cls-1" d="M306.15,21.64c0,.4-.2.6-.64.6h-5.78c-.44,0-.96.08-1.51.28l-2.35.72c-.4.12-.6.48-.6,1.04v15.14c0,.44-.2.64-.6.64h-4.7c-.4,0-.6-.2-.6-.64v-18.01c0-.6.28-1,.84-1.16l6.38-1.83c.6-.16,1.2-.24,1.75-.24h7.17c.44,0,.64.2.64.64v2.83Z"/>
</svg>